<svg width="95.99999999999999" height="20" xmlns="http://www.w3.org/2000/svg">
 <style type="text/css">.st0{fill:#EE2E24;}</style>

 <g>
  <title>background</title>
  <rect fill="none" id="canvas_background" height="22" width="98" y="-1" x="-1"/>
 </g>
 <g>
  <title>Layer 1</title>
  <g stroke="null" id="svg_1">
   <path stroke="null" id="svg_2" d="m4.947346,10.512012l-2.651348,5.961564l-1.936913,0l2.913308,-6.374349c-0.682682,-0.349279 -1.230416,-0.857322 -1.651139,-1.532066c-0.420723,-0.674744 -0.627115,-1.587634 -0.627115,-2.754544c0,-0.809693 0.119073,-1.524128 0.357218,-2.143305c0.238145,-0.619177 0.56361,-1.12722 0.976395,-1.532066c0.412785,-0.404847 0.897013,-0.714435 1.444747,-0.912889c0.547734,-0.206392 1.135158,-0.30165 1.738459,-0.30165l2.500523,0l0,15.558809l-1.674953,0l0,-5.961564l-1.389179,0l0,-0.007938zm1.389179,-8.200128l-0.889075,0c-0.333403,0 -0.658868,0.063505 -0.976395,0.182578c-0.317527,0.127011 -0.603301,0.317527 -0.849384,0.587424c-0.246083,0.269898 -0.444537,0.627115 -0.595363,1.071653c-0.150825,0.444537 -0.230207,0.992271 -0.230207,1.651139c0,0.627115 0.071444,1.151034 0.206392,1.571757c0.134949,0.420723 0.325465,0.762064 0.56361,1.024024c0.238145,0.26196 0.523919,0.444537 0.849384,0.555672c0.325465,0.111134 0.666806,0.166702 1.031962,0.166702l0.889075,0l0,-6.810948z" class="st0"/>
   <path stroke="null" id="svg_3" d="m16.084596,5.510966l0,10.96261l-1.674953,0l0,-4.913726l-2.524337,0l0,4.913726l-1.698768,0l0,-10.96261l1.698768,0l0,4.659705l2.524337,0l0,-4.659705l1.674953,0zm8.724047,13.113854l-1.524128,0l0,-2.151244l-4.699396,0l0,2.151244l-1.524128,0l0,-3.548361l0.674744,0c0.246083,-0.579486 0.444537,-1.222478 0.587424,-1.928975c0.142887,-0.706497 0.254021,-1.42887 0.333403,-2.175058c0.079382,-0.746188 0.127011,-1.508252 0.150825,-2.286192c0.023815,-0.77794 0.031753,-1.524128 0.031753,-2.25444l0,-0.920827l5.088366,0l0,9.573431l0.873198,0l0,3.540423l0.007938,0zm-2.548152,-11.724674l-1.889284,0l0,0.198454c0,0.579486 -0.007938,1.21454 -0.031753,1.897222c-0.023815,0.690621 -0.071444,1.389179 -0.142887,2.095676c-0.071444,0.706497 -0.17464,1.405056 -0.30165,2.095676c-0.127011,0.690621 -0.309589,1.317736 -0.547734,1.897222l2.913308,0l0,-8.184251zm9.92271,8.835181c-0.349279,0.277836 -0.746188,0.492166 -1.198663,0.65093c-0.452476,0.158763 -0.95258,0.238145 -1.500314,0.238145c-1.135158,0 -2.024233,-0.436599 -2.675163,-1.317736c-0.65093,-0.881137 -0.976395,-2.16712 -0.976395,-3.85795c0,-0.881137 0.063505,-1.698768 0.182578,-2.437018c0.127011,-0.73825 0.317527,-1.381241 0.587424,-1.928975c0.269898,-0.547734 0.611239,-0.968457 1.031962,-1.270107c0.420723,-0.30165 0.920827,-0.460414 1.500314,-0.460414c0.452476,0 0.86526,0.08732 1.238354,0.269898c0.373094,0.182578 0.698559,0.47629 0.960518,0.881137c0.26196,0.404847 0.460414,0.928766 0.611239,1.579695c0.142887,0.642992 0.214331,1.42887 0.214331,2.357636l0,0.936704l-4.572385,0c0,1.246292 0.166702,2.190934 0.508043,2.825988c0.341341,0.635053 0.849384,0.960518 1.532066,0.960518c0.47629,0 0.904951,-0.079382 1.270107,-0.254021c0.373094,-0.166702 0.666806,-0.333403 0.881137,-0.492166l0.404847,1.317736zm-3.048257,-8.986006c-0.523919,0 -0.889075,0.293712 -1.111344,0.881137s-0.357218,1.373303 -0.412785,2.357636l2.810111,0c0,-0.460414 -0.023815,-0.897013 -0.063505,-1.293921c-0.039691,-0.396908 -0.111134,-0.746188 -0.206392,-1.031962c-0.095258,-0.293712 -0.222269,-0.515981 -0.38897,-0.674744c-0.166702,-0.158763 -0.381032,-0.238145 -0.627115,-0.238145zm6.461669,4.262796l0,5.46146l-1.698768,0l0,-10.96261l1.698768,0l0,5.072489l2.635472,-5.072489l1.722582,0l-2.722792,5.159809l3.111762,5.810739l-1.849593,0l-2.897431,-5.469398zm8.724047,5.612285c-1.174849,0 -2.095676,-0.468352 -2.762482,-1.405056c-0.666806,-0.936704 -1.000209,-2.349698 -1.000209,-4.231044c0,-0.857322 0.079382,-1.635263 0.254021,-2.325883c0.166702,-0.698559 0.412785,-1.285983 0.73825,-1.770211c0.325465,-0.484228 0.730311,-0.86526 1.21454,-1.135158c0.484228,-0.269898 1.047838,-0.404847 1.682892,-0.404847c0.492166,0 0.889075,0.055567 1.198663,0.166702c0.30165,0.111134 0.579486,0.246083 0.825569,0.404847l-0.238145,1.611448c-0.230207,-0.206392 -0.508043,-0.38897 -0.817631,-0.547734c-0.309589,-0.158763 -0.642992,-0.238145 -0.992271,-0.238145c-0.611239,0 -1.111344,0.341341 -1.500314,1.031962c-0.38897,0.682682 -0.587424,1.730521 -0.587424,3.127638c0,1.381241 0.166702,2.452894 0.492166,3.20702c0.325465,0.754126 0.841446,1.12722 1.532066,1.12722c0.420723,0 0.785879,-0.071444 1.087529,-0.214331c0.30165,-0.142887 0.555672,-0.30165 0.762064,-0.484228l0.38897,1.262169c-0.293712,0.246083 -0.619177,0.444537 -0.976395,0.595363c-0.357218,0.150825 -0.793817,0.222269 -1.30186,0.222269z"/>
   <path stroke="null" id="svg_4" d="m58.141011,16.473576l-6.660123,0l-0.150825,2.587843l-0.849384,0l0,-3.453103l0.460414,0c0.373094,-0.317527 0.666806,-0.889075 0.873198,-1.698768c0.206392,-0.809693 0.365156,-1.77815 0.47629,-2.897431c0.119073,-1.158973 0.198454,-2.587843 0.238145,-4.278673c0.039691,-1.69083 0.079382,-3.627743 0.111134,-5.802801l5.437645,0l0,14.685611l1.063715,0l0,3.461041l-0.849384,0l-0.150825,-2.603719zm-1.158973,-14.685611l-3.373721,0c-0.031753,1.99248 -0.071444,3.746815 -0.127011,5.247129c-0.055567,1.508252 -0.127011,2.825988 -0.214331,3.961146c-0.103196,1.182787 -0.246083,2.151244 -0.420723,2.913308c-0.182578,0.762064 -0.420723,1.325674 -0.706497,1.69083l4.850221,0l0,-13.812412l-0.007938,0z"/>
   <path stroke="null" id="svg_5" d="m61.228958,11.162942c0.031753,1.51619 0.238145,2.667224 0.627115,3.461041c0.38897,0.793817 0.984333,1.190725 1.786088,1.190725c0.365156,0 0.682682,-0.055567 0.960518,-0.17464c0.277836,-0.119073 0.508043,-0.26196 0.698559,-0.420723c0.214331,-0.158763 0.404847,-0.365156 0.56361,-0.595363l0.325465,0.825569c-0.17464,0.246083 -0.381032,0.460414 -0.627115,0.627115c-0.214331,0.158763 -0.484228,0.30165 -0.801755,0.420723c-0.317527,0.119073 -0.698559,0.182578 -1.135158,0.182578c-1.158973,0 -2.016295,-0.500105 -2.564028,-1.500314c-0.547734,-1.000209 -0.825569,-2.397327 -0.825569,-4.199291c0,-0.897013 0.079382,-1.698768 0.238145,-2.405265c0.158763,-0.706497 0.381032,-1.30186 0.666806,-1.794026c0.285774,-0.492166 0.619177,-0.86526 1.008147,-1.119282c0.38897,-0.254021 0.817631,-0.381032 1.285983,-0.381032c0.47629,0 0.904951,0.127011 1.285983,0.373094c0.373094,0.246083 0.690621,0.619177 0.936704,1.111344c0.246083,0.492166 0.420723,1.103405 0.523919,1.841655c0.103196,0.730311 0.111134,1.587634 0.023815,2.55609l-4.977231,0zm2.198873,-5.001046c-0.579486,0 -1.079591,0.357218 -1.492376,1.071653s-0.642992,1.754335 -0.682682,3.127638l3.98496,0c0.08732,-1.460623 -0.055567,-2.524337 -0.420723,-3.191144s-0.841446,-1.008147 -1.389179,-1.008147z"/>
   <path stroke="null" id="svg_6" d="m72.890127,11.234385l-3.738877,0l0,5.247129l-1.024024,0l0,-10.970548l1.024024,0l0,4.850221l3.738877,0l0,-4.850221l1.024024,0l0,10.96261l-1.024024,0l0,-5.239191z"/>
   <path stroke="null" id="svg_7" d="m76.327354,5.510966l1.024024,0l0,4.064342l0.801755,0c1.047838,0 1.881346,0.285774 2.500523,0.849384c0.627115,0.56361 0.936704,1.420932 0.936704,2.564028c0,1.158973 -0.325465,2.032171 -0.976395,2.611657c-0.65093,0.579486 -1.492376,0.873198 -2.524337,0.873198l-1.762273,0l0,-10.96261zm1.024024,4.874035l0,5.28682l0.65093,0c0.770002,0 1.389179,-0.206392 1.873408,-0.619177s0.714435,-1.087529 0.714435,-2.032171c0,-0.928766 -0.214331,-1.595572 -0.65093,-2.016295c-0.436599,-0.412785 -1.047838,-0.619177 -1.825779,-0.619177l-0.762064,0z"/>
   <path stroke="null" id="svg_8" d="m84.352842,6.376226l0,10.09735l-1.000209,0l0,-10.96261l4.63589,0l0,0.873198l-3.635681,0l0,-0.007938z"/>
   <path stroke="null" id="svg_9" d="m94.664522,8.837058c0,-0.293712 0.007938,-0.555672 0.023815,-0.793817c0.015876,-0.238145 0.039691,-0.47629 0.063505,-0.706497l-0.063505,0c-0.071444,0.246083 -0.158763,0.484228 -0.26196,0.706497c-0.103196,0.222269 -0.214331,0.460414 -0.325465,0.706497l-3.564237,7.723838l-0.873198,0l0,-10.96261l0.960518,0l0,7.612703c0,0.293712 -0.007938,0.555672 -0.023815,0.801755c-0.015876,0.246083 -0.039691,0.492166 -0.063505,0.73825l0.063505,0c0.071444,-0.246083 0.158763,-0.492166 0.26196,-0.730311c0.103196,-0.238145 0.206392,-0.484228 0.325465,-0.730311l3.564237,-7.700023l0.889075,0l0,10.96261l-0.976395,0l0,-7.62858z"/>
  </g>
 </g>
</svg>